<svg xmlns="http://www.w3.org/2000/svg" viewBox="0 0 256 256" role="img" aria-label="HAM 台网点名主控台">
  <rect x="10" y="10" width="236" height="236" rx="40" fill="#e8fff1" stroke="#91d7a8" stroke-width="8"/>
  <g fill="none" stroke-linecap="round">
    <path d="M86 86a60 60 0 0 0 0 84" stroke="#19a653" stroke-width="12"/>
    <path d="M170 86a60 60 0 0 1 0 84" stroke="#19a653" stroke-width="12"/>
    <path d="M64 62a92 92 0 0 0 0 132" stroke="#07883a" stroke-width="12"/>
    <path d="M192 62a92 92 0 0 1 0 132" stroke="#07883a" stroke-width="12"/>
  </g>
  <rect x="112" y="86" width="32" height="92" rx="16" fill="#07883a"/>
  <circle cx="128" cy="76" r="18" fill="#07883a"/>
  <circle cx="128" cy="76" r="7" fill="#fff"/>
  <rect x="76" y="176" width="104" height="22" rx="11" fill="#07883a"/>
  <rect x="92" y="202" width="72" height="18" rx="9" fill="#19a653"/>
</svg>
